<svg fill="none" height="175" viewBox="0 0 1512 175" width="1512" xmlns="http://www.w3.org/2000/svg"
    xmlns:xlink="http://www.w3.org/1999/xlink">
    <style>
        :root {
            --fill-color: oklch(71.36% 0.1598 65.18);
        }
        .color-fill {
            fill: var(--fill-color);
        }
    </style>

    <clipPath id="a">
        <path d="m0 0h756v174.394h-756z" />
    </clipPath>
    <clipPath id="b">
        <path d="m756 0h756v174.394h-756z" />
    </clipPath>
    <g stroke="#000" stroke-width=".871972">
        <g clip-path="url(#a)">
            <path d="m58.1315 0h-58.1315v58.1315h58.1315z" />
            <path d="m116.263 0h-58.1317v58.1315h58.1317z" />
            <path d="m174.394 0h-58.131v58.1315h58.131z" class="color-fill" />
            <path d="m232.526 0h-58.131v58.1315h58.131z" />
            <path d="m290.657 0h-58.131v58.1315h58.131z" />
            <path d="m348.789 0h-58.132v58.1315h58.132z" />
            <path d="m406.921 0h-58.132v58.1315h58.132z" />
            <path d="m465.052 0h-58.132v58.1315h58.132z" />
            <path d="m523.183 0h-58.131v58.1315h58.131z" />
            <path d="m581.315 0h-58.131v58.1315h58.131z" />
            <path d="m639.446 0h-58.131v58.1315h58.131z" />
            <path d="m697.578 0h-58.132v58.1315h58.132z" />
            <path d="m755.71 0h-58.132v58.1315h58.132z" />
            <path d="m58.1315 58.1315h-58.1315v58.1315h58.1315z" />
            <path d="m116.263 58.1315h-58.1317v58.1315h58.1317z" />
            <path d="m174.394 58.1315h-58.131v58.1315h58.131z" />
            <path d="m232.526 58.1315h-58.131v58.1315h58.131z" />
            <path d="m290.657 58.1315h-58.131v58.1315h58.131z" />
            <path d="m348.789 58.1315h-58.132v58.1315h58.132z" />
            <path d="m406.921 58.1315h-58.132v58.1315h58.132z" />
            <path d="m465.052 58.1315h-58.132v58.1315h58.132z" />
            <path d="m523.183 58.1315h-58.131v58.1315h58.131z" />
            <path d="m581.315 58.1315h-58.131v58.1315h58.131z" />
            <path d="m639.446 58.1315h-58.131v58.1315h58.131z" />
            <path d="m697.578 58.1315h-58.132v58.1315h58.132z" />
            <path d="m755.71 58.1315h-58.132v58.1315h58.132z" />
            <path d="m58.1315 116.263h-58.1315v58.132h58.1315z" />
            <path d="m116.263 116.263h-58.1317v58.132h58.1317z" />
            <path d="m174.394 116.263h-58.131v58.132h58.131z" />
            <path d="m232.526 116.263h-58.131v58.132h58.131z" />
            <path d="m290.657 116.263h-58.131v58.132h58.131z" />
            <path d="m348.789 116.263h-58.132v58.132h58.132z" />
            <path d="m406.921 116.263h-58.132v58.132h58.132z" />
            <path d="m465.052 116.263h-58.132v58.132h58.132z" />
            <path d="m523.183 116.263h-58.131v58.132h58.131z" />
            <path d="m581.315 116.263h-58.131v58.132h58.131z" />
            <path d="m639.446 116.263h-58.131v58.132h58.131z" />
            <path d="m697.578 116.263h-58.132v58.132h58.132z" />
            <path d="m755.71 116.263h-58.132v58.132h58.132z" />
            <path d="m58.1315 174.395h-58.1315v58.131h58.1315z" />
            <path d="m116.263 174.395h-58.1317v58.131h58.1317z" />
            <path d="m174.394 174.395h-58.131v58.131h58.131z" />
            <path d="m232.526 174.395h-58.131v58.131h58.131z" />
            <path d="m290.657 174.395h-58.131v58.131h58.131z" />
            <path d="m348.789 174.395h-58.132v58.131h58.132z" />
            <path d="m406.921 174.395h-58.132v58.131h58.132z" />
            <path d="m465.052 174.395h-58.132v58.131h58.132z" />
            <path d="m523.183 174.395h-58.131v58.131h58.131z" />
            <path d="m581.315 174.395h-58.131v58.131h58.131z" />
            <path d="m639.446 174.395h-58.131v58.131h58.131z" />
            <path d="m697.578 174.395h-58.132v58.131h58.132z" />
            <path d="m755.71 174.395h-58.132v58.131h58.132z" />
        </g>
        <g clip-path="url(#b)">
            <path d="m814.131 0h-58.131v58.1315h58.131z" />
            <path d="m872.263 0h-58.132v58.1315h58.132z" />
            <path d="m930.394 0h-58.131v58.1315h58.131z" />
            <path d="m988.526 0h-58.131v58.1315h58.131z" />
            <path d="m1046.66 0h-58.134v58.1315h58.134z" class="color-fill" />
            <path d="m1104.79 0h-58.13v58.1315h58.13z" />
            <path d="m1162.92 0h-58.13v58.1315h58.13z" />
            <path d="m1221.05 0h-58.13v58.1315h58.13z" />
            <path d="m1279.18 0h-58.13v58.1315h58.13z" />
            <path d="m1337.32 0h-58.14v58.1315h58.14z" />
            <path d="m1395.45 0h-58.14v58.1315h58.14z" />
            <path d="m1453.58 0h-58.13v58.1315h58.13z" />
            <path d="m1511.71 0h-58.13v58.1315h58.13z" />
            <path d="m814.131 58.1315h-58.131v58.1315h58.131z" />
            <path d="m872.263 58.1315h-58.132v58.1315h58.132z" class="color-fill" />
            <path d="m930.394 58.1315h-58.131v58.1315h58.131z" />
            <path d="m988.526 58.1315h-58.131v58.1315h58.131z" />
            <path d="m1046.66 58.1315h-58.134v58.1315h58.134z" />
            <path d="m1104.79 58.1315h-58.13v58.1315h58.13z" />
            <path d="m1162.92 58.1315h-58.13v58.1315h58.13z" />
            <path d="m1221.05 58.1315h-58.13v58.1315h58.13z" />
            <path d="m1279.18 58.1315h-58.13v58.1315h58.13z" />
            <path d="m1337.32 58.1315h-58.14v58.1315h58.14z" />
            <path d="m1395.45 58.1315h-58.14v58.1315h58.14z" />
            <path d="m1453.58 58.1315h-58.13v58.1315h58.13z" />
            <path d="m1511.71 58.1315h-58.13v58.1315h58.13z" />
            <path d="m814.131 116.263h-58.131v58.132h58.131z" />
            <path d="m872.263 116.263h-58.132v58.132h58.132z" />
            <path d="m930.394 116.263h-58.131v58.132h58.131z" />
            <path d="m988.526 116.263h-58.131v58.132h58.131z" />
            <path d="m1046.66 116.263h-58.134v58.132h58.134z" />
            <path d="m1104.79 116.263h-58.13v58.132h58.13z" />
            <path d="m1162.92 116.263h-58.13v58.132h58.13z" />
            <path d="m1221.05 116.263h-58.13v58.132h58.13z" />
            <path d="m1279.18 116.263h-58.13v58.132h58.13z" />
            <path d="m1337.32 116.263h-58.14v58.132h58.14z" />
            <path d="m1395.45 116.263h-58.14v58.132h58.14z" class="color-fill" />
            <path d="m1453.58 116.263h-58.13v58.132h58.13z" />
            <path d="m1511.71 116.263h-58.13v58.132h58.13z" />
            <path d="m814.131 174.395h-58.131v58.131h58.131z" />
            <path d="m872.263 174.395h-58.132v58.131h58.132z" />
            <path d="m930.394 174.395h-58.131v58.131h58.131z" />
            <path d="m988.526 174.395h-58.131v58.131h58.131z" />
            <path d="m1046.66 174.395h-58.134v58.131h58.134z" />
            <path d="m1104.79 174.395h-58.13v58.131h58.13z" />
            <path d="m1162.92 174.395h-58.13v58.131h58.13z" />
            <path d="m1221.05 174.395h-58.13v58.131h58.13z" />
            <path d="m1279.18 174.395h-58.13v58.131h58.13z" />
            <path d="m1337.32 174.395h-58.14v58.131h58.14z" />
            <path d="m1395.45 174.395h-58.14v58.131h58.14z" />
            <path d="m1453.58 174.395h-58.13v58.131h58.13z" />
            <path d="m1511.71 174.395h-58.13v58.131h58.13z" />
        </g>
    </g>
</svg>