<svg width="96" height="96" viewBox="0 0 96 96" fill="none" xmlns="http://www.w3.org/2000/svg">
    <path
        d="M68.7806 86.7914L69.3723 87.5845C83.4281 79.9797 92.9771 65.1054 92.9771 48C92.9771 40.2955 91.0395 33.0421 87.6246 26.702L87.2867 26.0746L86.8117 26.6057L68.9636 46.5624L68.6517 46.9112L68.979 47.2455C73.9444 52.3177 77.0046 59.26 77.0046 66.9182C77.0046 74.6777 73.8627 81.7025 68.7806 86.7914ZM30.4035 89.4045L30.9188 88.5598C24.7093 83.4003 20.7569 75.621 20.7569 66.9182C20.7569 59.5875 23.5609 52.9129 28.1558 47.9066L28.4701 47.5642L28.1514 47.2258L9.015 26.9049L8.53564 26.3958L8.20894 27.014C4.89761 33.2797 3.02294 40.4217 3.02294 48C3.02294 66.5965 14.3091 82.5559 30.4035 89.4045ZM30.574 49.7983L30.2015 49.4027L29.8382 49.8067C25.7612 54.3409 23.2798 60.3403 23.2798 66.9182C23.2798 81.0571 34.7417 92.5191 48.8807 92.5191C63.0197 92.5191 74.4817 81.0571 74.4817 66.9182C74.4817 53.231 63.7408 42.0528 50.2277 41.3521L49.7018 41.3248V41.8514V60.9926V61.3802L50.0772 61.4768C52.9006 62.2035 54.9862 64.7671 54.9862 67.8165C54.9862 71.4317 52.0556 74.3624 48.4404 74.3624C44.8252 74.3624 41.8945 71.4317 41.8945 67.8165C41.8945 66.3249 42.3928 64.9511 43.2323 63.8505L43.4895 63.5132L43.1988 63.2044L30.574 49.7983ZM47.1789 41.9125V41.3671L46.6356 41.4144C41.2456 41.8828 36.3338 44.0214 32.4211 47.3091L32.016 47.6494L32.3787 48.0346L45.2504 61.703L45.4922 61.9598L45.8151 61.8182C46.1323 61.6792 46.4625 61.5646 46.8035 61.4768L47.1789 61.3802V60.9926V41.9125ZM46.7168 38.8763L47.1789 38.8411V38.3777V3.54218V3.02738L46.6643 3.04239C31.286 3.49099 17.8446 11.659 10.0794 23.8037L9.86941 24.1321L10.1366 24.4158L29.9601 45.4663L30.2863 45.8127L30.6484 45.504C35.0447 41.7573 40.6079 39.341 46.7168 38.8763ZM66.4105 44.9245L66.78 45.2194L67.0951 44.8671L85.6717 24.0958L85.9269 23.8105L85.718 23.4897C78.0751 11.7521 65.1 3.80218 50.2262 3.07708L49.7018 3.05152V3.57649V38.3242V38.802L50.1791 38.8237C56.3044 39.102 61.9184 41.3393 66.4105 44.9245ZM46.6924 0.517647L47.1789 0.504501V0.5H49.7018V0.527538L50.1793 0.549095C75.401 1.68783 95.5 22.4969 95.5 48C95.5 74.2335 74.2335 95.5 48 95.5C21.7665 95.5 0.5 74.2335 0.5 48C0.5 22.2037 21.0636 1.21019 46.6924 0.517647Z"
        fill="#e58a00" stroke="#e58a00" />
</svg>