<svg width="96" height="96" viewBox="0 0 96 96" fill="none" xmlns="http://www.w3.org/2000/svg">
<g clip-path="url(#clip0_682_87)">
<path fill-rule="evenodd" clip-rule="evenodd" d="M73.7198 5.20176C73.5258 3.71574 73.1135 2.29886 72.5162 0.984803C72.3638 0.649709 72.1994 0.32116 72.0236 0C72.2998 0.0870405 72.5716 0.195024 72.8374 0.324396L92.6023 9.93888C94.6796 10.9491 96 13.074 96 15.4051V80.5949C96 82.9261 94.6789 85.0509 92.6023 86.0616L72.8374 95.6755C72.5716 95.8047 72.2998 95.9131 72.0236 96C72.1995 95.6788 72.3639 95.3503 72.5162 95.0151C73.1134 93.7012 73.5259 92.2841 73.7198 90.7982C73.8031 90.1595 73.8461 89.5081 73.8461 88.8466V7.15336C73.8461 6.49184 73.8031 5.84042 73.7198 5.20176ZM77.8461 7.209V88.7911L90.8517 82.4651C91.5366 82.1317 92 81.4131 92 80.5949V15.4051C92 14.5862 91.5367 13.8686 90.8529 13.536L77.8461 7.209ZM33.7095 31.2956L49.3915 43.3292L66.4615 30.2305V7.15336C66.4615 6.9512 66.4535 6.75093 66.4377 6.55284C66.318 5.04865 65.7527 3.67085 64.8745 2.55306L33.7095 31.2956ZM39.9141 31.0147L49.3915 38.2873L62.4615 28.2579V10.22L39.9141 31.0147ZM11.6997 23.7476C10.1654 22.5704 8.01947 22.6668 6.59454 23.9771L1.30848 28.838C0.607234 29.4829 0.187789 30.317 0.0502868 31.1882C-0.153949 32.4824 0.263924 33.8585 1.3042 34.818L64.8746 93.4467C65.7528 92.3291 66.3182 90.9511 66.4378 89.4469C66.4536 89.2489 66.4616 89.0487 66.4616 88.8466V65.7696L11.6997 23.7476ZM62.4616 67.7422L9.2853 26.9369L4.01605 31.7823C4.01111 31.7869 4.00835 31.7904 4.00835 31.7904L4.00687 31.7927C4.00687 31.7927 4.0032 31.8003 4.00139 31.8117M62.4616 67.7422V85.7798L4.01609 31.8776L4.01278 31.8744C4.011 31.8727 4.00925 31.8706 4.00925 31.8706L4.00754 31.8684C4.00754 31.8684 4.00602 31.8659 4.00456 31.8616C4.00298 31.8568 4.00119 31.8494 4.0004 31.8398C3.99961 31.8301 4.00003 31.8204 4.00139 31.8117" fill="#e58a00"/>
<path fill-rule="evenodd" clip-rule="evenodd" d="M10.1339 53.04L22.2169 64.1836L11.6996 72.254C10.1658 73.4308 8.01961 73.3351 6.59435 72.0246L1.30843 67.1641C-0.43415 65.5612 -0.436672 62.7891 1.30405 61.1837L10.1339 53.04ZM10.134 58.4815L4.0159 64.124C4.01046 64.1291 4.00814 64.1327 4.00598 64.1378C4.00303 64.1448 3.99988 64.1566 3.99989 64.1718C3.99991 64.1871 4.00307 64.1989 4.00606 64.2059C4.00823 64.211 4.01055 64.2147 4.01591 64.2197L9.28512 69.0649L16.0123 63.9027L10.134 58.4815Z" fill="#e58a00"/>
</g>
<defs>
<clipPath id="clip0_682_87">
<rect width="96" height="96" fill="white"/>
</clipPath>
</defs>
</svg>
