<svg width="96" height="96" viewBox="0 0 96 96" fill="none" xmlns="http://www.w3.org/2000/svg">
<path d="M58.6305 52.6459L54.1739 86.3119H42.742L39.9325 61.1229L36.8323 86.3119H25.6426L21.3314 52.6459H29.8569L32.1336 79.8209L35.5244 52.6459H44.5828L47.6345 79.8209L50.444 52.6459H58.6305Z" fill="#e58a00"/>
<path d="M77.2459 86.3119L75.938 79.3365H68.2845L66.9766 86.3119H58.0636L66.9766 52.6459H77.4397L86.3043 86.3119H77.2459ZM69.447 73.1361H74.7755L72.1113 58.9431L69.447 73.1361Z" fill="#e58a00"/>
<path fill-rule="evenodd" clip-rule="evenodd" d="M38.8459 0H0V96H96V0H57.1541C56.513 4.48156 52.6588 7.92661 48 7.92661C43.3412 7.92661 39.487 4.48156 38.8459 0ZM59.2134 3.52294C57.5811 8.14095 53.1769 11.4495 48 11.4495C42.8231 11.4495 38.4189 8.14095 36.7867 3.52294H3.52294V92.4771H92.4771V3.52294H59.2134Z" fill="#e58a00"/>
</svg>
